# xmcd
#
# Track frame offsets: 
#        150
#        15276
#        31140
#        45223
#        57949
#        71948
#        87553
#        102478
#        121086
#        141357
#        156806
#        170815
#        186165
#        200719
#        215186
#        235963
#        251003
#        265696
#        279490
#        295582
#        309384
#
# Disc length: 4429 seconds
#
# Revision: 0
# Processed by: cddbd v1.5.2PL0 Copyright (c) Steve Scherf et al.
# Submitted via: ExactAudioCopy v1.3
#
DISCID=37114b15
DTITLE=Various Artist - Hit Country Australia
DYEAR=2017
DGENRE=Country
TTITLE0=The Wolfe Brothers - This Crazy Life
TTITLE1=Sunny Cowgirls - Dam Fun
TTITLE2=Jasmine Rae - Eggs In A Basket
TTITLE3=The Wilson Pickers - Pulled Apart By Horses
TTITLE4=Jody Direen - Gimme The Beat
TTITLE5=Caitlyn Shadbolt - Shoot Out The Lights
TTITLE6=Missy Lancaster - That’s What I’m Talking About
TTITLE7=Drew McAlister - Last Night On Earth
TTITLE8=Travis Collins - Call Me Crazy
TTITLE9=Adam Harvey - A Little Less Lonely
TTITLE10=Lyn Bowtell - Heart Of Sorrow
TTITLE11=Troy Cassar-Daley - Things I Carry Around
TTITLE12=Mae Valley - Brightside
TTITLE13=Fanny Lumsden - Soapbox
TTITLE14=Imogen Clark - You’ll Only Break My Heart
TTITLE15=Taasha Coates - High Times
TTITLE16=Sara Storer - Dandelions
TTITLE17=Seleen McAlister - I’ve Got You
TTITLE18=Warren H Williams and Dani Young - Two Ships
TTITLE19=Amber Lawrence - Cheers to the Girls
TTITLE20=O’Shea feat. Rob Hirst - The Truth Walks Slowly (In the Contr
TTITLE20=yside
EXTD=
EXTT0=
EXTT1=
EXTT2=
EXTT3=
EXTT4=
EXTT5=
EXTT6=
EXTT7=
EXTT8=
EXTT9=
EXTT10=
EXTT11=
EXTT12=
EXTT13=
EXTT14=
EXTT15=
EXTT16=
EXTT17=
EXTT18=
EXTT19=
EXTT20=
PLAYORDER=
